# This file uses centimeters as units for non-parametric coordinates.

mtllib spaceship_example.mtl
g default
v -0.843170 0.153263 0.255685
v 0.500000 0.048340 0.404224
v -0.843170 0.514474 0.255685
v 0.500000 0.619396 0.404224
v -0.843170 0.514474 -0.255685
v 0.500000 0.619396 -0.404225
v -0.843170 0.153263 -0.255685
v 0.500000 0.048340 -0.404225
v 0.629782 0.069858 -0.281510
v 0.629782 0.069858 0.281510
v 0.727303 0.582016 -0.364049
v 0.727303 0.582016 0.364049
v 1.784248 0.005127 -0.116154
v 1.784248 0.005127 0.116154
v -0.843170 0.406110 0.255685
v 0.500000 0.448079 0.404224
v 0.660385 0.348244 0.341150
v 0.660385 0.348244 -0.341150
v 0.500000 0.448079 -0.404225
v -0.843170 0.406110 -0.255685
v -0.843170 0.279687 0.255685
v 0.500000 0.248210 0.404224
v 0.629782 0.209051 0.341150
v 1.891585 0.028640 0.118739
v 1.891585 0.028640 -0.118739
v 0.629782 0.209051 -0.341150
v 0.500000 0.248210 -0.404225
v -0.843170 0.279687 -0.255685
v -0.867452 0.279687 2.153204
v -0.315810 0.248210 2.301744
v -0.315810 0.448079 2.301744
v -0.867452 0.406110 2.153204
v -0.315810 0.448079 -2.301744
v -0.867452 0.406110 -2.153204
v -0.315810 0.248210 -2.301744
v -0.867452 0.279687 -2.153204
v -0.843170 0.514474 0.091096
v -0.843170 0.514474 -0.061284
v 0.500000 0.619396 0.149868
v 0.500000 0.619396 -0.155371
v -0.889880 1.388379 0.091097
v -0.431866 1.493301 0.149868
v -0.431866 1.493301 -0.155371
v -0.889880 1.388379 -0.061284
v 1.529865 0.318552 -0.187534
v 1.529865 0.318552 0.187534
v 1.525603 0.205851 0.227302
v 1.525603 0.205851 -0.227303
v 1.964849 0.164071 0.160994
v 1.982881 0.159711 -0.158758
v 1.799497 0.255779 -0.174672
v 1.799497 0.255779 0.174672
v 1.615492 0.213193 -0.239022
v 1.620076 0.317613 -0.189756
v 1.975351 0.091976 0.149847
v 1.615492 0.213193 0.239022
v 1.975351 0.091976 -0.149253
v 1.620076 0.317613 0.189756
vt 0.025639 0.131585
vt 0.313118 0.205665
vt 0.323882 0.233681
vt 0.006403 0.133093
vt 0.000000 0.042454
vt 0.397582 0.353722
vt 0.418084 0.375772
vt 0.226654 0.524258
vt 0.064607 0.037817
vt 0.474290 0.418144
vt 0.306093 0.141352
vt 0.070376 0.127950
vt 0.574532 0.126649
vt 0.588852 0.049555
vt 0.577225 0.194117
vt 0.546040 0.144697
vt 0.113585 0.358529
vt 0.002414 0.076895
vt 0.492533 0.392100
vt 0.330223 0.128327
vt 0.451595 0.360863
vt 0.424255 0.328303
vt 0.368969 0.320615
vt 0.341433 0.274682
vt 0.358474 0.220673
vt 0.341713 0.181215
vt 0.538977 0.098888
vt 0.615166 0.221335
vt 0.564849 0.225597
vt 0.550694 0.214242
vt 0.501036 0.164664
vt 0.539467 0.224958
vt 0.496406 0.141794
vt 0.308045 0.174432
vt 0.332735 0.157138
vt 0.577417 0.104631
vt 0.617911 0.183051
vt 0.557590 0.239691
vt 0.621204 0.202488
vt 0.468625 0.379169
vt 0.446776 0.395569
vt 0.041914 0.039375
vt 0.585496 0.458546
vt 0.633930 0.327381
vt 0.630874 0.362804
vt 0.621330 0.204325
vt 0.650801 0.506408
vt 0.550457 0.524157
vt 0.514920 0.525289
vt 0.413767 0.513984
vt 0.068483 0.150505
vt 0.558596 0.099286
vt 0.516276 0.159206
vt 0.512326 0.141633
vt 0.112270 0.858923
vt 0.021066 0.629702
vt 0.000000 0.547099
vt 0.001247 0.749784
vt 0.024440 0.535373
vt 0.070023 0.606214
vt 0.068975 0.660504
vt 0.020250 0.730453
vt 0.131273 0.839592
vt 0.296196 0.664889
vt 0.297244 0.610599
vt 0.139175 0.430144
vt 0.595750 0.357281
vt 0.907327 0.617580
vt 0.607713 0.462039
vt 0.628124 0.225764
vt 0.943136 0.102333
vt 0.995007 0.394387
vt 0.789876 0.814011
vt 0.562154 0.891400
vt 0.526617 0.892532
vt 0.294485 0.829790
vt 0.392728 0.506038
vt 0.648517 0.484034
vt 0.546846 0.488786
vt 0.273446 0.821844
vt 0.949930 0.123772
vt 0.998063 0.358963
vt 0.768865 0.742280
vt 0.771019 0.612775
vt 0.920742 0.646670
vt 0.919633 0.713382
vt 0.782995 0.571010
vt 0.929823 0.627432
vt 0.928069 0.732912
vt 0.779446 0.784420
vt 0.607979 0.175096
vt 0.576707 0.051417
vt 0.558030 0.057152
vt 0.189832 0.484985
vt 0.215161 0.508686
vt 0.289283 0.578432
vt 0.306726 0.592758
vt 0.538416 0.058069
vt 0.095874 0.313352
vt 0.104875 0.330485
vt 0.334086 0.025148
vt 0.311000 0.000000
vt 0.019315 0.041009
vt 0.004310 0.103894
vt 0.048054 0.129805
vt 0.574771 0.113473
vt 0.590437 0.106542
vt 0.558492 0.102072
vn -0.109919 0.000000 0.993941
vn -0.109919 0.000000 0.993941
vn -0.109919 0.000000 0.993941
vn -0.109919 0.000000 0.993941
vn -0.223297 0.974750 -0.000000
vn -0.223297 0.974750 -0.000000
vn -0.223297 0.974750 -0.000000
vn -0.223297 0.974750 -0.000000
vn -0.109919 0.000000 -0.993941
vn -0.109919 0.000000 -0.993941
vn -0.109919 0.000000 -0.993941
vn -0.109919 0.000000 -0.993941
vn -0.077878 -0.996963 0.000000
vn -0.077878 -0.996963 0.000000
vn -0.077878 -0.996963 0.000000
vn -0.077878 -0.996963 0.000000
vn 0.474042 0.880474 0.007038
vn 0.474042 0.880474 0.007038
vn 0.395971 0.918257 0.003280
vn 0.396083 0.918209 0.003286
vn -1.000000 0.000001 0.000000
vn -1.000000 0.000001 0.000000
vn -1.000000 0.000001 0.000000
vn -1.000000 0.000001 0.000000
vn -1.000000 0.000001 0.000000
vn -1.000000 0.000001 0.000000
vn 0.163567 -0.986532 0.000000
vn 0.163567 -0.986532 0.000000
vn 0.163567 -0.986532 0.000000
vn 0.163567 -0.986532 0.000000
vn 0.304682 -0.064209 -0.950287
vn 0.265281 -0.078283 -0.960988
vn 0.225690 -0.092105 -0.969835
vn 0.225690 -0.092105 -0.969835
vn 0.162272 0.986746 0.000000
vn 0.162272 0.986746 0.000000
vn 0.162272 0.986746 0.000000
vn 0.162272 0.986746 0.000000
vn 0.162272 0.986746 0.000000
vn 0.162272 0.986746 0.000000
vn 0.225689 -0.092106 0.969836
vn 0.265280 -0.078283 0.960988
vn 0.304682 -0.064210 0.950287
vn 0.225689 -0.092106 0.969836
vn -0.055982 -0.998432 0.000000
vn -0.055982 -0.998432 0.000000
vn -0.055982 -0.998432 0.000000
vn -0.055982 -0.998432 0.000000
vn 0.225331 0.121265 -0.966706
vn 0.223606 0.245844 -0.943166
vn 0.215479 0.408918 -0.886767
vn 0.311902 0.950114 0.000000
vn 0.311902 0.950114 0.000000
vn 0.311902 0.950114 0.000000
vn 0.311902 0.950114 0.000000
vn 0.174370 0.012116 0.984606
vn 0.174370 0.012116 0.984606
vn 0.174370 0.012116 0.984606
vn 0.174370 0.012116 0.984606
vn -0.260007 0.000000 0.965607
vn -0.260007 0.000000 0.965607
vn -0.260007 0.000000 0.965607
vn -0.260007 0.000000 0.965607
vn 0.463706 -0.079419 0.882423
vn 0.492543 -0.096158 0.864959
vn 0.999362 0.020907 0.028972
vn 0.999362 0.020907 0.028972
vn 0.999362 0.020907 0.028972
vn 0.999362 0.020907 0.028972
vn 0.122728 -0.203220 -0.971411
vn 0.113484 -0.312194 -0.943216
vn 0.115150 -0.294034 -0.948833
vn 0.122728 -0.203220 -0.971411
vn 0.492543 -0.096158 -0.864959
vn 0.463706 -0.079419 -0.882423
vn -0.260007 0.000000 -0.965607
vn -0.260007 0.000000 -0.965607
vn -0.260007 0.000000 -0.965607
vn -0.260007 0.000000 -0.965607
vn -1.000000 0.000000 0.000000
vn -1.000000 0.000000 0.000000
vn -1.000000 0.000000 0.000000
vn -1.000000 0.000000 0.000000
vn -0.109919 -0.000000 0.993941
vn -0.109919 -0.000000 0.993941
vn -0.109919 -0.000000 0.993941
vn -0.109919 -0.000000 0.993941
vn 0.569692 -0.142377 0.809432
vn 0.569692 -0.142377 0.809432
vn 0.103150 -0.413942 0.904440
vn 0.113484 -0.312194 0.943216
vn 0.115150 -0.294034 0.948833
vn 0.103150 -0.413942 0.904440
vn 0.213978 -0.976839 0.000000
vn 0.213978 -0.976839 0.000000
vn 0.213978 -0.976839 0.000000
vn 0.213978 -0.976839 0.000000
vn 0.103150 -0.413942 -0.904440
vn 0.103150 -0.413942 -0.904440
vn 0.569692 -0.142377 -0.809432
vn 0.569692 -0.142377 -0.809432
vn -0.109919 -0.000000 -0.993941
vn -0.109919 -0.000000 -0.993941
vn -0.109919 -0.000000 -0.993941
vn -0.109919 -0.000000 -0.993941
vn -1.000000 -0.000001 -0.000000
vn -1.000000 -0.000001 -0.000000
vn -1.000000 -0.000001 -0.000000
vn -1.000000 -0.000001 -0.000000
vn -0.032092 -0.999460 -0.007104
vn -0.032092 -0.999460 -0.007104
vn -0.032092 -0.999460 -0.007104
vn -0.032092 -0.999460 -0.007104
vn 0.918691 0.000000 0.394978
vn 0.918691 0.000000 0.394978
vn 0.918691 0.000000 0.394978
vn 0.918691 0.000000 0.394978
vn -0.042772 0.999040 -0.009468
vn -0.042772 0.999040 -0.009468
vn -0.042772 0.999040 -0.009468
vn -0.042772 0.999040 -0.009468
vn -0.999918 0.000000 -0.012795
vn -0.999918 0.000000 -0.012795
vn -0.999918 0.000000 -0.012795
vn -0.999918 0.000000 -0.012795
vn -0.042772 0.999040 0.009468
vn -0.042772 0.999040 0.009468
vn -0.042772 0.999040 0.009468
vn -0.042772 0.999040 0.009468
vn 0.918691 -0.000000 -0.394978
vn 0.918691 -0.000000 -0.394977
vn 0.918691 -0.000000 -0.394978
vn 0.918691 -0.000000 -0.394978
vn -0.032093 -0.999460 0.007104
vn -0.032093 -0.999460 0.007104
vn -0.032093 -0.999460 0.007104
vn -0.032093 -0.999460 0.007104
vn -0.999918 0.000000 0.012795
vn -0.999918 0.000000 0.012795
vn -0.999918 0.000000 0.012795
vn -0.999918 0.000000 0.012795
vn -0.077878 0.996963 -0.000000
vn -0.077878 0.996963 -0.000000
vn -0.077878 0.996963 -0.000000
vn -0.077878 0.996963 -0.000000
vn -0.077878 0.996963 0.000000
vn -0.077878 0.996963 0.000000
vn -0.077878 0.996963 0.000000
vn -0.077878 0.996963 0.000000
vn -0.061112 -0.034216 0.997544
vn -0.061112 -0.034216 0.997544
vn -0.061112 -0.034216 0.997544
vn -0.061112 -0.034216 0.997544
vn 0.684058 0.729428 0.000000
vn 0.684058 0.729428 0.000000
vn 0.684058 0.729428 0.000000
vn 0.684058 0.729428 0.000000
vn -0.097461 -0.054567 -0.993742
vn -0.097461 -0.054567 -0.993742
vn -0.097461 -0.054567 -0.993742
vn -0.097461 -0.054567 -0.993742
vn -0.998575 -0.053373 0.000000
vn -0.998575 -0.053373 0.000000
vn -0.998575 -0.053373 0.000000
vn -0.998575 -0.053373 0.000000
vn 0.174370 0.012117 -0.984606
vn 0.174370 0.012117 -0.984606
vn 0.174370 0.012117 -0.984606
vn 0.174370 0.012117 -0.984606
vn 0.325824 0.945430 0.000000
vn 0.325824 0.945430 0.000000
vn 0.230318 0.100574 0.967904
vn 0.229906 0.131131 0.964338
vn 0.225994 0.253815 0.940481
vn 0.230318 0.100574 0.967904
vn 0.122728 -0.203220 0.971411
vn 0.122728 -0.203220 0.971411
vn -0.084814 0.380996 -0.920679
vn -0.084814 0.380996 -0.920679
vn -0.084814 0.380996 -0.920679
vn -0.084814 0.380996 -0.920679
vn 0.009784 -0.535681 0.844364
vn 0.341441 -0.778041 0.527323
vn 0.376055 -0.793539 0.478412
vn 0.009784 -0.535681 0.844364
vn 0.342188 -0.776744 -0.528750
vn 0.378316 -0.793059 -0.477425
vn 0.010409 0.999946 0.000000
vn 0.010409 0.999946 0.000000
vn 0.010409 0.999946 0.000000
vn 0.010409 0.999946 0.000000
vn -0.084813 0.380996 0.920678
vn -0.084813 0.380996 0.920678
vn -0.084813 0.380996 0.920678
vn -0.084813 0.380996 0.920678
vn 0.011594 -0.533752 -0.845562
vn 0.011594 -0.533751 -0.845562
vn 0.215479 0.408917 0.886767
vn 0.225207 0.091248 -0.970029
vn 0.225207 0.091248 -0.970029
s off
g pCube1
usemtl lambert2SG
f 15/99/1 16/2/2 4/3/3 3/100/4
f 41/59/5 42/60/6 43/56/7 44/57/8
f 5/95/9 6/6/10 19/7/11 20/8/12
f 7/9/13 8/102/14 2/11/15 1/12/16
s 1
f 49/13/17 50/91/18 51/15/19 52/16/20
s off
f 20/103/21 15/1/22 3/4/23 37/104/24 38/18/25 5/5/26
f 2/11/27 8/102/28 9/101/29 10/20/30
s 2
f 18/21/31 19/7/32 6/6/33 11/22/34
s off
f 6/6/35 40/23/36 39/24/37 4/3/38 12/25/39 11/22/40
s 3
f 4/3/41 16/2/42 17/26/43 12/25/44
s off
f 14/27/45 10/20/46 9/101/47 13/98/48
s 4
f 51/15/49 53/29/50 54/30/51
s off
f 11/83/52 12/84/53 46/85/54 45/86/55
f 12/84/56 17/87/57 47/88/58 46/85/59
f 29/43/60 30/67/61 31/45/62 32/69/63
s 3
f 17/26/43 16/2/42 22/34/64 23/35/65
s off
f 55/36/66 57/92/67 50/14/68 49/107/69
s 5
f 48/38/70 25/39/71 26/40/72 18/21/73
s 2
f 26/40/74 27/41/75 19/7/32 18/21/31
s off
f 34/47/76 33/48/77 35/79/78 36/78/79
f 28/42/80 21/105/81 15/1/82 20/103/83
f 1/12/84 2/11/85 22/34/86 21/51/87
s 3
f 23/35/65 22/34/64 2/11/88 10/20/89
s 6
f 14/27/90 24/108/91 23/35/92 10/20/93
s off
f 14/27/94 13/98/95 25/93/96 24/52/97
s 5
f 13/28/98 9/19/99 26/40/72 25/39/71
s 2
f 8/10/100 27/41/75 26/40/74 9/19/101
s off
f 28/96/102 27/41/103 8/10/104 7/97/105
f 7/9/106 1/12/107 21/105/108 28/42/109
f 21/81/110 22/82/111 30/44/112 29/70/113
f 22/82/114 16/72/115 31/45/116 30/44/117
f 16/72/118 15/68/119 32/69/120 31/45/121
f 15/71/122 21/81/123 29/70/124 32/46/125
f 20/73/126 19/74/127 33/48/128 34/47/129
f 19/74/130 27/75/131 35/49/132 33/48/133
f 27/75/134 28/76/135 36/50/136 35/49/137
f 28/76/138 20/80/139 34/77/140 36/50/141
f 3/100/142 4/3/143 39/24/144 37/17/145
f 38/94/146 40/23/147 6/6/148 5/95/149
f 37/66/150 39/65/151 42/60/152 41/59/153
f 39/65/154 40/64/155 43/61/156 42/60/157
f 40/64/158 38/63/159 44/62/160 43/61/161
f 38/63/162 37/55/163 41/58/164 44/62/165
f 45/86/166 48/89/167 18/90/168 11/83/169
s 1
f 54/30/170 58/53/171 52/16/20 51/15/19
s 7
f 49/13/172 52/16/173 56/54/174 55/106/175
s 6
f 24/108/91 47/33/176 17/26/177 23/35/92
s off
f 48/38/178 45/32/179 54/30/180 53/29/181
s 8
f 47/33/182 24/108/183 55/106/184 56/54/185
f 24/52/183 25/93/186 57/92/187 55/36/184
s off
f 45/32/188 46/31/189 58/53/190 54/30/191
f 46/31/192 47/33/193 56/54/194 58/53/195
s 8
f 25/39/186 48/38/196 53/29/197 57/37/187
s 7
f 58/53/198 56/54/174 52/16/173
s 4
f 53/29/50 51/15/49 50/91/199 57/37/200
